<svg xmlns="http://www.w3.org/2000/svg" xmlns:xlink="http://www.w3.org/1999/xlink" width="500" zoomAndPan="magnify" viewBox="0 0 375 374.999991" height="500" preserveAspectRatio="xMidYMid meet" version="1.0"><defs><g/><clipPath id="6574cb5409"><path d="M 151.039062 153.714844 L 197 153.714844 L 197 254.964844 L 151.039062 254.964844 Z M 151.039062 153.714844 " clip-rule="nonzero"/></clipPath></defs><path fill="#040606" d="M 313.066406 116.546875 C 319.4375 117.164062 322.738281 113.160156 322.738281 109.5 C 322.738281 109.386719 322.332031 109.582031 322.28125 109.601562 C 321.871094 109.761719 321.460938 109.925781 321.035156 110.035156 C 320.15625 110.265625 318.738281 110.386719 318.234375 109.523438 C 318.167969 109.40625 318.117188 109.269531 318.085938 109.113281 C 317.46875 105.964844 319.214844 103.109375 320.070312 100.195312 C 320.410156 99.039062 320.613281 97.832031 320.453125 96.628906 C 319.964844 92.972656 317.660156 91.476562 314.148438 91.699219 C 312.542969 91.804688 303.664062 95.117188 305.222656 91.679688 C 306.800781 88.195312 310.085938 85.496094 310.617188 81.554688 C 311 78.679688 309.480469 75.789062 306.730469 74.746094 C 303.210938 73.402344 295.769531 78.578125 293.511719 75.496094 C 293.082031 74.90625 292.949219 74.148438 292.902344 73.417969 C 292.472656 66.554688 303.792969 51.699219 294.414062 46.691406 C 288.226562 43.386719 280.847656 52.824219 274.425781 49.996094 C 271.351562 48.640625 270.023438 44.902344 270.054688 41.542969 C 270.089844 38.179688 271.136719 34.898438 271.324219 31.539062 C 271.40625 30.085938 271.300781 28.546875 270.496094 27.332031 C 269.828125 26.324219 268.757812 25.660156 267.671875 25.132812 C 263.3125 23.003906 258.164062 22.550781 253.5 23.894531 C 250.632812 24.714844 247.085938 26.023438 245.050781 23.835938 C 242.933594 21.5625 244.726562 17.882812 244.351562 14.792969 C 243.925781 11.261719 240.386719 8.683594 236.839844 8.460938 C 231.261719 8.113281 227.425781 12.386719 223.757812 15.832031 C 224.5 14.25 224.273438 6.597656 218.988281 2.132812 C 217.773438 1.109375 216.363281 0.21875 214.785156 0.00390625 C 215.226562 2.207031 215.625 4.652344 214.445312 6.558594 C 213.464844 8.144531 211.59375 8.96875 209.757812 9.25 C 207.601562 9.582031 205.191406 9.050781 203.554688 7.550781 C 201.625 5.78125 199.988281 3.921875 197.535156 2.835938 C 194.914062 1.671875 191.65625 1.582031 189.332031 3.257812 C 186.851562 5.046875 185.976562 8.3125 184.042969 10.683594 C 182.703125 12.328125 180.730469 13.5625 178.609375 13.582031 C 176.488281 13.605469 174.316406 12.183594 173.867188 10.113281 C 172.539062 3.992188 164.835938 2.632812 159.621094 4.28125 C 155.078125 5.722656 151.320312 8.871094 147.550781 11.789062 C 145.878906 13.082031 144.066406 14.390625 141.964844 14.625 C 139.683594 14.878906 137.492188 13.828125 135.328125 13.066406 C 130.457031 11.355469 124.550781 11.8125 120.089844 14.457031 C 117.953125 15.722656 116.144531 17.535156 115.152344 19.832031 C 114.054688 22.371094 114.746094 25.242188 113.972656 27.867188 C 113.148438 30.652344 111.886719 33.40625 109.808594 35.488281 C 107.195312 38.109375 104.085938 38.480469 100.550781 38.894531 C 93.042969 39.78125 86.070312 42.183594 81.089844 48.179688 C 78.324219 51.503906 77.140625 55.535156 76.710938 59.777344 C 76.292969 63.941406 77.152344 68.195312 76.261719 72.328125 C 75.761719 74.652344 74.476562 76.933594 72.035156 77.597656 C 69.789062 78.207031 67.5625 77.449219 65.347656 78.539062 C 63.332031 79.53125 61.917969 81.464844 61.015625 83.527344 C 60.085938 85.664062 59.304688 87.925781 59.085938 90.257812 C 58.855469 92.734375 59.597656 95.042969 60.164062 97.429688 C 60.253906 97.8125 60.347656 98.203125 60.347656 98.597656 C 60.363281 101.070312 56.957031 102.984375 54.660156 103 C 51.386719 103.015625 49.433594 99.105469 49.1875 99.453125 C 47.746094 101.480469 49.839844 106.050781 51.046875 107.671875 C 57.90625 116.925781 71.042969 111.589844 70.605469 102.296875 C 72.929688 103.199219 73.128906 106.96875 72.632812 108.535156 C 71.828125 111.070312 68.339844 113.605469 66.128906 114.871094 C 61.3125 117.625 54.386719 118.296875 51.703125 123.824219 C 49.882812 127.570312 51.277344 132.242188 53.992188 135.402344 C 57.433594 139.398438 65.429688 140.460938 64.445312 146.4375 C 63.710938 150.898438 57.203125 153.457031 55.046875 157.1875 C 53.332031 160.160156 52.714844 164.003906 54.355469 167.015625 C 55.519531 169.152344 57.71875 170.636719 60.09375 171.140625 C 62.472656 171.644531 64.996094 171.21875 67.1875 170.171875 C 68.28125 169.652344 69.304688 168.980469 70.453125 168.617188 C 73.800781 167.546875 74.859375 170.421875 74.617188 173.265625 C 74.402344 175.851562 74.0625 178.703125 72.261719 180.582031 C 67.171875 185.890625 64.019531 180.082031 63.90625 180.40625 C 62.667969 183.933594 63.515625 188.996094 68.148438 190.59375 C 70.996094 191.582031 74.148438 191.476562 77.148438 189.453125 C 77.730469 189.058594 81.8125 185.070312 81.214844 183.898438 C 82.527344 186.472656 79.953125 191.425781 78.617188 193.757812 C 76.957031 196.636719 74.640625 199.261719 74.023438 202.527344 C 73.113281 207.359375 76.644531 212.414062 81.351562 213.808594 C 86.058594 215.207031 91.398438 213.25 94.632812 209.550781 C 95.574219 207.179688 99.347656 206.671875 100.875 208.722656 C 102.910156 211.4375 100.46875 215.085938 98.953125 218.125 C 97.324219 221.40625 96.851562 225.46875 98.589844 228.695312 C 100.324219 231.917969 104.644531 233.785156 107.894531 232.085938 C 109.347656 231.324219 112.960938 230.828125 110.960938 233.574219 C 110.464844 234.257812 109.726562 234.722656 109.144531 235.335938 C 107.675781 236.894531 107.410156 239.335938 108.09375 241.371094 C 108.773438 243.402344 110.273438 245.070312 111.953125 246.402344 C 117.214844 250.585938 124.070312 251.347656 130.554688 250.511719 C 138.25 249.523438 142.679688 244.320312 147.539062 238.921875 C 148.167969 238.222656 148.851562 237.542969 149.699219 237.132812 C 153.578125 235.257812 157.757812 239.253906 161.8125 237.960938 C 164.84375 236.992188 166.394531 233.328125 165.839844 230.191406 C 165.585938 228.726562 164.964844 227.339844 164.773438 225.867188 C 164.339844 222.554688 166.105469 219.476562 168.253906 217.109375 C 170.253906 214.902344 173.332031 213.917969 175 211.382812 C 175.75 210.238281 176.121094 208.875 176.214844 207.511719 C 176.285156 206.390625 176.15625 205.195312 175.5 204.28125 C 174.925781 203.480469 174.023438 202.996094 173.152344 202.539062 C 171.804688 201.828125 170.457031 201.117188 169.109375 200.410156 C 167.945312 199.800781 166.601562 198.847656 166.796875 197.546875 C 166.878906 197.003906 167.234375 196.542969 167.585938 196.121094 C 170.527344 192.621094 174.460938 190.117188 177.308594 186.511719 C 178.328125 185.21875 179.519531 183.253906 179.121094 181.515625 C 178.667969 179.550781 176.730469 179.132812 175.050781 178.515625 C 173.710938 178.023438 172.277344 176.941406 172.472656 175.527344 C 172.570312 174.828125 173.054688 174.25 173.550781 173.746094 C 176.628906 170.601562 181.964844 169.308594 182.703125 164.332031 C 183.125 161.492188 181.484375 159.035156 178.65625 158.488281 C 176.832031 158.136719 174.910156 158.347656 173.152344 157.75 C 170.15625 156.734375 168.328125 153.515625 168.085938 150.359375 C 167.855469 147.488281 168.503906 142.28125 171.023438 140.480469 C 172.144531 139.675781 177.355469 137.957031 175.398438 142.484375 C 174.570312 144.574219 171.703125 143.042969 172.253906 144.65625 C 172.800781 146.269531 174.601562 147.207031 176.300781 147.191406 C 178.003906 147.175781 179.609375 146.390625 181.03125 145.460938 C 184.035156 143.492188 186.644531 140.582031 187.269531 137.042969 C 188.585938 129.578125 180.90625 126.484375 174.890625 128.742188 C 173.59375 129.230469 171.960938 129.765625 170.984375 128.789062 C 169.679688 127.480469 171.148438 125.347656 172.519531 124.105469 C 175.414062 121.488281 178.328125 117.1875 175.980469 114.070312 C 175.222656 113.066406 174.054688 112.46875 173.089844 111.660156 C 169.738281 108.847656 169.722656 102.597656 173.570312 100.511719 C 175.089844 99.6875 176.890625 99.585938 178.527344 99.023438 C 181.917969 97.847656 184.4375 94.496094 184.632812 90.910156 C 184.832031 87.152344 183.050781 82.46875 186.046875 80.199219 C 188.980469 77.980469 192.898438 80.773438 196.210938 82.367188 C 201.804688 85.042969 212.21875 82.140625 209.042969 74.074219 C 208.457031 72.59375 207.367188 71.367188 206.707031 69.921875 C 206.039062 68.476562 205.914062 66.554688 207.082031 65.480469 C 207.59375 65.007812 208.273438 64.773438 208.953125 64.632812 C 218.226562 62.699219 230.230469 63.875 237.753906 68.769531 C 243.449219 72.476562 249.257812 77.574219 252.945312 83.351562 C 254.652344 86.03125 255.730469 89 256.582031 92.058594 C 256.273438 90.96875 252.722656 91.914062 252.011719 92.046875 C 249.734375 92.488281 248.839844 94.285156 248.246094 96.390625 C 247.976562 97.34375 251.242188 96.949219 251.617188 96.914062 C 252.570312 96.828125 253.519531 96.703125 254.46875 96.578125 C 255.304688 96.472656 257.269531 95.820312 257.800781 96.804688 C 257.886719 96.964844 257.914062 97.144531 257.941406 97.320312 C 258.4375 100.617188 258.921875 103.988281 259.691406 107.257812 C 259.382812 107.171875 259.050781 107.125 258.65625 107.128906 C 256.269531 107.136719 253.730469 107.746094 251.949219 109.421875 C 251.679688 109.671875 250.4375 111.019531 250.863281 111.402344 C 251.082031 111.597656 252.597656 110.5625 252.910156 110.460938 C 253.832031 110.160156 254.816406 110.0625 255.785156 110.082031 C 257.074219 110.109375 258.347656 110.34375 259.617188 110.554688 C 260.054688 110.628906 260.5 110.699219 260.941406 110.71875 C 261.464844 111.785156 262.0625 112.824219 262.597656 113.804688 C 265.277344 118.710938 267.535156 123.847656 268.890625 129.285156 C 271.292969 138.902344 270.140625 149.691406 269.675781 159.503906 C 269.386719 165.613281 268.574219 171.644531 268.152344 177.738281 C 267.921875 181.042969 267.195312 184.515625 264.9375 186.9375 C 259.664062 192.585938 250.832031 191.953125 243.847656 191.132812 C 235.28125 190.125 226.648438 190.847656 218.035156 190.542969 C 209.988281 190.261719 201.835938 188.972656 194.855469 184.714844 C 193.242188 183.730469 191.410156 182.554688 189.617188 183.152344 C 197.351562 192.292969 210.347656 194.789062 222.308594 195.207031 C 223.542969 195.25 224.886719 195.320312 225.8125 196.136719 C 226.683594 196.910156 226.949219 198.148438 227.070312 199.3125 C 228.925781 216.945312 218.703125 232.78125 216.148438 249.648438 C 215.433594 254.363281 215.277344 259.257812 216.21875 263.957031 C 216.617188 265.953125 217.320312 268.070312 218.265625 269.886719 C 218.367188 270.074219 220.296875 273.003906 220.3125 272.171875 C 220.355469 270.152344 219.324219 267.308594 219.316406 265.09375 C 219.273438 254.46875 223.695312 238.710938 225.011719 237.542969 C 225.582031 237.035156 227.753906 241.539062 233.203125 239.753906 C 236.515625 238.671875 239.609375 236.421875 240.417969 233.03125 C 240.902344 231.011719 240.703125 228.777344 241.753906 226.988281 C 246.832031 218.355469 259.152344 231.597656 265.96875 224.1875 C 267.890625 222.101562 268.867188 219.3125 269.496094 216.546875 C 270.125 213.777344 270.453125 210.933594 271.308594 208.226562 C 271.953125 206.210938 273.03125 204.136719 274.964844 203.277344 C 279.535156 201.246094 284.746094 206.664062 289.90625 205.523438 C 294.457031 204.515625 297.839844 200.65625 298.023438 195.960938 C 298.171875 192.285156 296.898438 188.722656 295.914062 185.179688 C 295.085938 182.1875 293.976562 177.910156 295.53125 175.195312 C 296.859375 178.253906 299.011719 180.910156 302.144531 182.234375 C 305.550781 183.675781 309.78125 183.871094 312.804688 181.636719 C 315.21875 179.851562 316.457031 176.78125 315.152344 174.203125 C 314.941406 173.789062 312.804688 176.097656 310.453125 175.902344 C 309.222656 175.796875 308.515625 174.523438 308.507812 173.289062 C 308.496094 172.050781 309.09375 170.894531 309.746094 169.84375 C 312.179688 165.878906 324.933594 153.015625 314.273438 150.03125 C 312.589844 149.558594 310.742188 149.523438 309.265625 148.597656 C 307.78125 147.667969 306.898438 145.839844 307.148438 144.105469 C 307.609375 140.863281 311.226562 139.277344 313.519531 136.9375 C 319.140625 131.203125 315.996094 120.800781 307.765625 119.953125 C 306.320312 119.800781 304.832031 119.980469 303.421875 119.617188 C 294.152344 117.21875 299.277344 106.03125 306.054688 104.570312 C 306.539062 104.464844 307.105469 104.433594 307.46875 104.773438 C 307.90625 105.183594 307.90625 105.917969 307.683594 106.476562 C 305.539062 111.851562 306.253906 115.882812 313.066406 116.546875 " fill-opacity="1" fill-rule="nonzero"/><path fill="#040606" d="M 75.371094 72.199219 C 75.367188 72.199219 75.363281 72.195312 75.359375 72.195312 C 75.351562 72.191406 75.347656 72.199219 75.347656 72.210938 C 75.347656 72.214844 75.339844 72.222656 75.332031 72.226562 C 75.351562 72.21875 75.367188 72.210938 75.371094 72.207031 C 75.371094 72.199219 75.371094 72.199219 75.371094 72.199219 " fill-opacity="1" fill-rule="nonzero"/><path fill="#040606" d="M 318.4375 107.625 C 318.441406 107.589844 318.441406 107.558594 318.441406 107.53125 C 318.441406 107.558594 318.433594 107.582031 318.433594 107.605469 C 318.433594 107.613281 318.433594 107.617188 318.4375 107.625 " fill-opacity="1" fill-rule="nonzero"/><path fill="#040606" d="M 64.292969 146.414062 C 64.296875 146.410156 64.296875 146.40625 64.300781 146.402344 C 64.304688 146.394531 64.304688 146.386719 64.304688 146.378906 C 64.304688 146.390625 64.296875 146.40625 64.292969 146.414062 " fill-opacity="1" fill-rule="nonzero"/><path fill="#040606" d="M 230.234375 95.324219 C 230.0625 94.019531 228.949219 92.996094 227.6875 92.347656 C 225.933594 91.445312 220.234375 91.554688 218.128906 91.6875 C 214.601562 91.914062 211.578125 92.105469 208.144531 92.914062 C 206.875 93.214844 203.5 94.144531 201.203125 96.585938 C 199.589844 98.304688 198.234375 100.269531 196.746094 102.246094 C 196.550781 102.503906 194.5625 105.417969 195.214844 105.722656 C 195.859375 106.023438 196.347656 105.027344 196.78125 104.617188 C 197.390625 104.039062 198.292969 103.105469 198.910156 102.570312 C 200.605469 101.101562 202.355469 99.558594 204.171875 98.441406 C 206.738281 96.859375 209.460938 96.625 212.308594 96.5 C 216.363281 96.324219 220.359375 96.800781 224.324219 97.027344 C 225.78125 97.109375 227.386719 97.269531 228.648438 97.027344 C 229.910156 96.785156 230.40625 96.628906 230.234375 95.324219 " fill-opacity="1" fill-rule="nonzero"/><path fill="#040606" d="M 251.355469 150.835938 C 252.699219 150.339844 254.019531 149.769531 255.378906 149.335938 C 257.832031 148.554688 261.117188 148.527344 264.695312 150.164062 C 264.59375 150.226562 264.492188 150.277344 264.382812 150.320312 C 264.117188 150.28125 263.847656 150.257812 263.605469 150.222656 C 263.339844 150.1875 263.0625 150.183594 262.789062 150.1875 C 262.382812 150.167969 261.976562 150.167969 261.570312 150.1875 C 261.152344 150.207031 260.734375 150.257812 260.324219 150.332031 C 260.292969 150.332031 260.265625 150.332031 260.234375 150.332031 C 257.839844 150.464844 255.429688 150.90625 253.035156 151.347656 C 252.210938 151.496094 251.382812 151.648438 250.558594 151.78125 C 249.632812 151.9375 248.675781 152.089844 247.78125 151.832031 C 248.691406 152.089844 250.488281 151.15625 251.355469 150.835938 Z M 235.542969 152.875 C 235.378906 152.949219 235.207031 153.027344 235.113281 153.179688 C 234.957031 153.425781 235.070312 153.746094 235.203125 154 C 236.679688 156.785156 239.996094 157.753906 242.535156 159.242188 C 247.292969 162.035156 252.046875 163.980469 257.648438 163.867188 C 260.910156 163.796875 264.550781 162.9375 266.617188 160.273438 C 267.65625 158.933594 268.289062 157.292969 268.46875 155.613281 C 268.566406 154.742188 268.539062 153.859375 268.386719 153 C 268.257812 152.234375 267.648438 151.40625 267.640625 150.660156 C 267.636719 150.339844 268.214844 149.605469 268.351562 149.269531 C 268.453125 149.015625 268.519531 148.824219 268.527344 148.777344 C 269.019531 145.867188 267.25 143.871094 265.089844 142.242188 C 264.492188 141.789062 263.738281 141.433594 262.996094 141.3125 C 261.90625 141.132812 260.726562 141.199219 259.789062 141.785156 C 259.296875 142.09375 258.886719 142.539062 258.367188 142.800781 C 257.539062 143.226562 256.882812 142.789062 256.121094 142.476562 C 255.191406 142.09375 254.3125 141.929688 253.300781 142.058594 C 247.078125 142.835938 243.421875 147.890625 238.648438 151.273438 C 237.683594 151.960938 236.621094 152.410156 235.542969 152.875 " fill-opacity="1" fill-rule="nonzero"/><path fill="#040606" d="M 261.03125 132.113281 C 261.4375 131.828125 261.847656 131.53125 262.148438 131.144531 C 262.703125 130.4375 263.011719 129.085938 262.984375 128.203125 C 262.855469 123.308594 258.148438 119.878906 254.695312 117.140625 C 254.214844 116.753906 253.660156 116.535156 253.050781 116.367188 C 253.015625 116.402344 252.859375 116.65625 252.914062 116.699219 C 253.777344 117.351562 254.640625 118.003906 255.46875 118.695312 C 256.972656 119.953125 258.222656 121.46875 259.488281 122.953125 C 260.679688 124.359375 261.828125 125.808594 262.265625 127.648438 C 262.546875 128.832031 262.125 131.335938 261.03125 132.113281 " fill-opacity="1" fill-rule="nonzero"/><path fill="#040606" d="M 248.324219 131.203125 C 247.933594 131.554688 247.472656 131.820312 247.050781 132.136719 C 246.832031 132.300781 246.617188 132.484375 246.492188 132.730469 C 245.671875 134.34375 249.75 132.25 250.265625 132.078125 C 251.359375 131.707031 254.589844 131.765625 254.101562 129.9375 C 253.96875 129.457031 253.582031 129.007812 253.023438 128.78125 C 250.761719 127.859375 249.722656 129.945312 248.324219 131.203125 " fill-opacity="1" fill-rule="nonzero"/><path fill="#040606" d="M 260.183594 127.910156 C 259.484375 128.429688 259.101562 129.5625 258.984375 130.351562 C 258.808594 131.574219 260.027344 130.613281 260.417969 130.09375 C 260.484375 130.003906 260.558594 129.867188 260.625 129.707031 C 261.007812 128.808594 261.285156 127.089844 260.183594 127.910156 " fill-opacity="1" fill-rule="nonzero"/><path fill="#040606" d="M 209.296875 115.78125 C 208.050781 116.984375 207.039062 118.382812 206.035156 119.765625 C 207.691406 118.789062 209.292969 118.332031 211.011719 117.53125 C 213.53125 116.355469 216.136719 115.3125 218.851562 114.683594 C 220.136719 114.382812 221.496094 114.125 222.816406 114.066406 C 224.191406 114.003906 225.519531 114.121094 226.859375 113.738281 C 226.929688 113.71875 227.003906 113.695312 227.078125 113.671875 C 229.632812 112.832031 230.355469 110.867188 230.226562 108.371094 C 227.097656 110.4375 222.972656 110.707031 219.378906 111.429688 C 215.789062 112.160156 212.007812 113.148438 209.296875 115.78125 " fill-opacity="1" fill-rule="nonzero"/><g clip-path="url(#6574cb5409)"><path fill="#ffbd59" d="M 176.789062 185.226562 C 182 192.851562 196.648438 215.492188 196.648438 228.902344 C 196.648438 245.210938 186.945312 254.964844 174.984375 254.964844 C 163.023438 254.964844 153.316406 245.210938 153.316406 228.902344 C 153.316406 215.492188 167.96875 192.851562 173.179688 185.226562 L 173.179688 175.261719 C 168.0625 174.394531 164.152344 169.933594 164.152344 164.566406 C 164.152344 158.574219 169.003906 153.714844 174.984375 153.714844 C 180.964844 153.714844 185.816406 158.574219 185.816406 164.566406 C 185.816406 169.933594 181.90625 174.394531 176.789062 175.261719 Z M 129.847656 185.226562 C 135.054688 192.851562 149.707031 215.492188 149.707031 228.902344 C 149.707031 245.210938 140.003906 254.964844 128.042969 254.964844 C 116.078125 254.964844 106.375 245.210938 106.375 228.902344 C 106.375 215.492188 121.027344 192.851562 126.234375 185.226562 L 126.234375 175.261719 C 121.121094 174.394531 117.207031 169.933594 117.207031 164.566406 C 117.207031 158.574219 122.0625 153.714844 128.042969 153.714844 C 134.023438 153.714844 138.875 158.574219 138.875 164.566406 C 138.875 169.933594 134.960938 174.394531 129.847656 175.261719 Z M 128.042969 236.886719 C 134.792969 236.886719 140.265625 231.820312 140.265625 223.34375 C 140.265625 214.851562 128.042969 197.109375 128.042969 197.109375 C 128.042969 197.109375 115.816406 214.851562 115.816406 223.34375 C 115.816406 231.820312 121.289062 236.886719 128.042969 236.886719 Z M 174.984375 236.886719 C 181.734375 236.886719 187.207031 231.820312 187.207031 223.34375 C 187.207031 214.851562 174.984375 197.109375 174.984375 197.109375 C 174.984375 197.109375 162.757812 214.851562 162.757812 223.34375 C 162.757812 231.820312 168.230469 236.886719 174.984375 236.886719 Z M 174.984375 236.886719 " fill-opacity="1" fill-rule="evenodd"/></g><g fill="#000000" fill-opacity="1"><g transform="translate(131.473884, 327.85043)"><g><path d="M 8.78125 0.375 C 7.707031 0.375 6.695312 0.25 5.75 0 C 4.800781 -0.25 3.96875 -0.578125 3.25 -0.984375 C 2.53125 -1.390625 1.96875 -1.8125 1.5625 -2.25 L 3.328125 -5.875 C 3.585938 -5.53125 3.988281 -5.160156 4.53125 -4.765625 C 5.070312 -4.378906 5.691406 -4.046875 6.390625 -3.765625 C 7.085938 -3.492188 7.78125 -3.359375 8.46875 -3.359375 C 9.382812 -3.359375 10.148438 -3.609375 10.765625 -4.109375 C 11.378906 -4.609375 11.6875 -5.316406 11.6875 -6.234375 C 11.6875 -6.816406 11.546875 -7.320312 11.265625 -7.75 C 10.984375 -8.1875 10.609375 -8.570312 10.140625 -8.90625 C 9.671875 -9.25 8.953125 -9.71875 7.984375 -10.3125 C 6.660156 -11.113281 5.625 -11.800781 4.875 -12.375 C 4.125 -12.945312 3.472656 -13.695312 2.921875 -14.625 C 2.378906 -15.550781 2.109375 -16.671875 2.109375 -17.984375 C 2.109375 -19.265625 2.378906 -20.394531 2.921875 -21.375 C 3.472656 -22.363281 4.285156 -23.132812 5.359375 -23.6875 C 6.429688 -24.25 7.722656 -24.53125 9.234375 -24.53125 C 11.691406 -24.53125 13.742188 -23.78125 15.390625 -22.28125 L 13.453125 -18.75 C 13.253906 -19.03125 12.957031 -19.332031 12.5625 -19.65625 C 12.175781 -19.988281 11.707031 -20.269531 11.15625 -20.5 C 10.601562 -20.738281 10.019531 -20.859375 9.40625 -20.859375 C 8.519531 -20.859375 7.832031 -20.601562 7.34375 -20.09375 C 6.851562 -19.582031 6.609375 -18.9375 6.609375 -18.15625 C 6.609375 -17.570312 6.753906 -17.050781 7.046875 -16.59375 C 7.335938 -16.132812 7.722656 -15.726562 8.203125 -15.375 C 8.679688 -15.019531 9.328125 -14.597656 10.140625 -14.109375 C 11.597656 -13.242188 12.710938 -12.515625 13.484375 -11.921875 C 14.265625 -11.335938 14.914062 -10.59375 15.4375 -9.6875 C 15.957031 -8.789062 16.21875 -7.679688 16.21875 -6.359375 C 16.21875 -4.960938 15.914062 -3.757812 15.3125 -2.75 C 14.71875 -1.738281 13.859375 -0.960938 12.734375 -0.421875 C 11.617188 0.109375 10.300781 0.375 8.78125 0.375 Z M 8.78125 0.375 "/></g></g></g><g fill="#000000" fill-opacity="1"><g transform="translate(148.905293, 327.85043)"><g><path d="M 11.9375 -17.640625 C 13.632812 -17.640625 14.914062 -17.09375 15.78125 -16 C 16.65625 -14.914062 17.09375 -13.375 17.09375 -11.375 L 17.09375 0 L 12.65625 0 L 12.65625 -10.9375 C 12.65625 -11.90625 12.425781 -12.679688 11.96875 -13.265625 C 11.507812 -13.859375 10.875 -14.15625 10.0625 -14.15625 C 9.519531 -14.15625 9.007812 -14.015625 8.53125 -13.734375 C 8.050781 -13.453125 7.664062 -13.066406 7.375 -12.578125 C 7.09375 -12.085938 6.953125 -11.539062 6.953125 -10.9375 L 6.953125 0 L 2.703125 0 L 2.703125 -26.359375 L 6.78125 -26.359375 L 6.78125 -17.640625 L 6.6875 -15.046875 C 7.875 -16.773438 9.625 -17.640625 11.9375 -17.640625 Z M 11.9375 -17.640625 "/></g></g></g><g fill="#000000" fill-opacity="1"><g transform="translate(168.688561, 327.85043)"><g><path d="M 9.546875 0.453125 C 7.691406 0.453125 6.15625 0.0546875 4.9375 -0.734375 C 3.726562 -1.523438 2.84375 -2.582031 2.28125 -3.90625 C 1.726562 -5.226562 1.453125 -6.726562 1.453125 -8.40625 C 1.453125 -10.113281 1.765625 -11.664062 2.390625 -13.0625 C 3.023438 -14.46875 3.945312 -15.582031 5.15625 -16.40625 C 6.363281 -17.226562 7.804688 -17.640625 9.484375 -17.640625 C 11.972656 -17.640625 13.753906 -16.921875 14.828125 -15.484375 C 15.898438 -14.046875 16.4375 -11.90625 16.4375 -9.0625 C 16.4375 -8.507812 16.410156 -7.890625 16.359375 -7.203125 L 5.984375 -7.203125 C 6.054688 -5.804688 6.445312 -4.726562 7.15625 -3.96875 C 7.863281 -3.21875 8.90625 -2.84375 10.28125 -2.84375 C 10.988281 -2.84375 11.75 -3 12.5625 -3.3125 C 13.382812 -3.625 13.992188 -4.007812 14.390625 -4.46875 L 15.78125 -1.171875 C 14.144531 -0.0859375 12.066406 0.453125 9.546875 0.453125 Z M 12.03125 -9.890625 C 12.03125 -11.585938 11.820312 -12.753906 11.40625 -13.390625 C 10.988281 -14.035156 10.378906 -14.359375 9.578125 -14.359375 C 8.460938 -14.359375 7.59375 -13.941406 6.96875 -13.109375 C 6.351562 -12.273438 6.015625 -11.203125 5.953125 -9.890625 Z M 12.03125 -9.890625 "/></g></g></g><g fill="#000000" fill-opacity="1"><g transform="translate(186.638774, 327.85043)"><g><path d="M 11.0625 0.421875 C 9.320312 0.421875 7.707031 -0.046875 6.21875 -0.984375 C 4.738281 -1.929688 3.546875 -3.367188 2.640625 -5.296875 C 1.734375 -7.222656 1.28125 -9.585938 1.28125 -12.390625 C 1.28125 -14.929688 1.726562 -17.113281 2.625 -18.9375 C 3.53125 -20.769531 4.75 -22.160156 6.28125 -23.109375 C 7.820312 -24.054688 9.546875 -24.53125 11.453125 -24.53125 C 12.617188 -24.53125 13.601562 -24.414062 14.40625 -24.1875 C 15.21875 -23.96875 15.851562 -23.707031 16.3125 -23.40625 C 16.769531 -23.113281 17.210938 -22.769531 17.640625 -22.375 L 15.703125 -18.75 C 15.296875 -19.1875 14.9375 -19.519531 14.625 -19.75 C 14.320312 -19.988281 13.929688 -20.179688 13.453125 -20.328125 C 12.972656 -20.472656 12.363281 -20.546875 11.625 -20.546875 C 10.46875 -20.546875 9.472656 -20.207031 8.640625 -19.53125 C 7.816406 -18.863281 7.1875 -17.929688 6.75 -16.734375 C 6.3125 -15.535156 6.09375 -14.164062 6.09375 -12.625 C 6.09375 -10.6875 6.316406 -9.03125 6.765625 -7.65625 C 7.222656 -6.289062 7.84375 -5.257812 8.625 -4.5625 C 9.40625 -3.875 10.28125 -3.53125 11.25 -3.53125 C 12.269531 -3.53125 13.175781 -3.671875 13.96875 -3.953125 C 14.757812 -4.242188 15.363281 -4.609375 15.78125 -5.046875 L 17.671875 -1.625 C 16.972656 -1.050781 16.125 -0.566406 15.125 -0.171875 C 14.125 0.222656 12.769531 0.421875 11.0625 0.421875 Z M 11.0625 0.421875 "/></g></g></g><g fill="#000000" fill-opacity="1"><g transform="translate(204.865664, 327.85043)"><g><path d="M 6.015625 0.484375 C 4.992188 0.484375 4.128906 0.253906 3.421875 -0.203125 C 2.722656 -0.671875 2.195312 -1.296875 1.84375 -2.078125 C 1.488281 -2.859375 1.3125 -3.734375 1.3125 -4.703125 C 1.3125 -5.546875 1.59375 -6.382812 2.15625 -7.21875 C 2.71875 -8.050781 3.710938 -8.757812 5.140625 -9.34375 C 6.566406 -9.9375 8.5 -10.234375 10.9375 -10.234375 L 10.9375 -11.03125 C 10.9375 -11.976562 10.707031 -12.710938 10.25 -13.234375 C 9.789062 -13.753906 8.992188 -14.015625 7.859375 -14.015625 C 6.953125 -14.015625 6.066406 -13.859375 5.203125 -13.546875 C 4.347656 -13.242188 3.722656 -12.867188 3.328125 -12.421875 L 1.9375 -15.734375 C 2.71875 -16.265625 3.691406 -16.710938 4.859375 -17.078125 C 6.023438 -17.453125 7.265625 -17.640625 8.578125 -17.640625 C 10.222656 -17.640625 11.523438 -17.382812 12.484375 -16.875 C 13.453125 -16.375 14.132812 -15.660156 14.53125 -14.734375 C 14.925781 -13.816406 15.125 -12.675781 15.125 -11.3125 L 15.125 0 L 11.421875 0 L 11.109375 -2.453125 C 10.492188 -1.460938 9.769531 -0.722656 8.9375 -0.234375 C 8.101562 0.242188 7.128906 0.484375 6.015625 0.484375 Z M 7.859375 -2.84375 C 8.378906 -2.84375 8.929688 -3.050781 9.515625 -3.46875 C 10.109375 -3.894531 10.582031 -4.429688 10.9375 -5.078125 L 10.9375 -7.546875 C 10.769531 -7.566406 10.488281 -7.578125 10.09375 -7.578125 C 8.9375 -7.578125 7.898438 -7.382812 6.984375 -7 C 6.066406 -6.613281 5.609375 -5.988281 5.609375 -5.125 C 5.609375 -4.300781 5.785156 -3.710938 6.140625 -3.359375 C 6.503906 -3.015625 7.078125 -2.84375 7.859375 -2.84375 Z M 7.859375 -2.84375 "/></g></g></g><g fill="#000000" fill-opacity="1"><g transform="translate(222.054979, 327.85043)"><g><path d="M 11.734375 -17.640625 C 13.441406 -17.640625 14.734375 -17.09375 15.609375 -16 C 16.484375 -14.914062 16.921875 -13.375 16.921875 -11.375 L 16.921875 0 L 12.484375 0 L 12.484375 -11 C 12.484375 -11.976562 12.273438 -12.757812 11.859375 -13.34375 C 11.453125 -13.925781 10.84375 -14.21875 10.03125 -14.21875 C 9.488281 -14.21875 8.984375 -14.078125 8.515625 -13.796875 C 8.046875 -13.523438 7.671875 -13.144531 7.390625 -12.65625 C 7.117188 -12.164062 6.984375 -11.613281 6.984375 -11 L 6.984375 0 L 2.5625 0 L 2.5625 -17.234375 L 6.578125 -17.234375 L 6.65625 -14.96875 C 7.84375 -16.75 9.535156 -17.640625 11.734375 -17.640625 Z M 11.734375 -17.640625 "/></g></g></g><g fill="#000000" fill-opacity="1"><g transform="translate(109.203631, 369.813984)"><g><path d="M 8.390625 0 L 6.375 0 L 6.375 -6.75 L 0.453125 -17.171875 L 2.65625 -17.171875 L 7.28125 -9.125 L 7.578125 -9.125 L 12.171875 -17.171875 L 14.328125 -17.171875 L 8.390625 -6.75 Z M 8.390625 0 "/></g></g></g><g fill="#000000" fill-opacity="1"><g transform="translate(123.972213, 369.813984)"><g><path d="M 12.34375 -6.046875 L 3.4375 -6.015625 C 3.5 -4.453125 3.878906 -3.300781 4.578125 -2.5625 C 5.285156 -1.832031 6.242188 -1.46875 7.453125 -1.46875 C 8.378906 -1.46875 9.125 -1.628906 9.6875 -1.953125 C 10.257812 -2.285156 10.703125 -2.804688 11.015625 -3.515625 L 11.265625 -3.515625 L 12.515625 -2.765625 C 12.140625 -1.828125 11.535156 -1.085938 10.703125 -0.546875 C 9.878906 -0.015625 8.796875 0.25 7.453125 0.25 C 6.203125 0.25 5.125 0.00390625 4.21875 -0.484375 C 3.320312 -0.984375 2.628906 -1.734375 2.140625 -2.734375 C 1.660156 -3.734375 1.421875 -4.976562 1.421875 -6.46875 C 1.421875 -7.945312 1.675781 -9.191406 2.1875 -10.203125 C 2.695312 -11.210938 3.394531 -11.960938 4.28125 -12.453125 C 5.175781 -12.953125 6.195312 -13.203125 7.34375 -13.203125 C 9 -13.203125 10.289062 -12.734375 11.21875 -11.796875 C 12.15625 -10.859375 12.628906 -9.472656 12.640625 -7.640625 C 12.640625 -6.921875 12.625 -6.4375 12.59375 -6.1875 Z M 10.75 -7.640625 C 10.71875 -9.015625 10.410156 -10.015625 9.828125 -10.640625 C 9.253906 -11.265625 8.425781 -11.578125 7.34375 -11.578125 C 6.207031 -11.578125 5.316406 -11.257812 4.671875 -10.625 C 4.023438 -10 3.628906 -9.003906 3.484375 -7.640625 Z M 10.75 -7.640625 "/></g></g></g><g fill="#000000" fill-opacity="1"><g transform="translate(137.789122, 369.813984)"><g><path d="M 5.90625 0.25 C 5.09375 0.25 4.335938 0.140625 3.640625 -0.078125 C 2.953125 -0.296875 2.367188 -0.59375 1.890625 -0.96875 C 1.410156 -1.34375 1.070312 -1.765625 0.875 -2.234375 L 2.015625 -3.40625 L 2.25 -3.40625 C 2.675781 -2.757812 3.1875 -2.273438 3.78125 -1.953125 C 4.375 -1.628906 5.082031 -1.46875 5.90625 -1.46875 C 6.863281 -1.46875 7.585938 -1.648438 8.078125 -2.015625 C 8.578125 -2.390625 8.828125 -2.910156 8.828125 -3.578125 C 8.828125 -4.085938 8.675781 -4.507812 8.375 -4.84375 C 8.082031 -5.175781 7.597656 -5.425781 6.921875 -5.59375 L 4.734375 -6.140625 C 3.566406 -6.421875 2.710938 -6.863281 2.171875 -7.46875 C 1.640625 -8.082031 1.375 -8.835938 1.375 -9.734375 C 1.375 -10.441406 1.550781 -11.054688 1.90625 -11.578125 C 2.269531 -12.097656 2.789062 -12.5 3.46875 -12.78125 C 4.144531 -13.0625 4.953125 -13.203125 5.890625 -13.203125 C 7.078125 -13.203125 8.015625 -13.035156 8.703125 -12.703125 C 9.390625 -12.367188 9.921875 -11.90625 10.296875 -11.3125 L 9.21875 -10.25 L 8.984375 -10.25 C 8.566406 -10.726562 8.113281 -11.070312 7.625 -11.28125 C 7.132812 -11.5 6.554688 -11.609375 5.890625 -11.609375 C 5.035156 -11.609375 4.378906 -11.453125 3.921875 -11.140625 C 3.472656 -10.835938 3.25 -10.398438 3.25 -9.828125 C 3.25 -9.296875 3.40625 -8.867188 3.71875 -8.546875 C 4.039062 -8.234375 4.601562 -7.976562 5.40625 -7.78125 L 7.5625 -7.265625 C 8.6875 -6.992188 9.5 -6.546875 10 -5.921875 C 10.5 -5.304688 10.75 -4.535156 10.75 -3.609375 C 10.75 -2.847656 10.566406 -2.175781 10.203125 -1.59375 C 9.847656 -1.019531 9.304688 -0.566406 8.578125 -0.234375 C 7.847656 0.0859375 6.957031 0.25 5.90625 0.25 Z M 5.90625 0.25 "/></g></g></g><g fill="#000000" fill-opacity="1"><g transform="translate(149.773174, 369.813984)"><g><path d="M 0.734375 3.578125 C 1.421875 3.128906 2 2.613281 2.46875 2.03125 C 2.9375 1.445312 3.179688 0.800781 3.203125 0.09375 C 2.734375 0.09375 2.367188 -0.03125 2.109375 -0.28125 C 1.847656 -0.53125 1.71875 -0.863281 1.71875 -1.28125 C 1.71875 -1.6875 1.84375 -2.019531 2.09375 -2.28125 C 2.351562 -2.539062 2.691406 -2.671875 3.109375 -2.671875 C 3.578125 -2.671875 3.953125 -2.507812 4.234375 -2.1875 C 4.523438 -1.875 4.671875 -1.375 4.671875 -0.6875 C 4.671875 0.539062 4.40625 1.570312 3.875 2.40625 C 3.351562 3.238281 2.578125 4 1.546875 4.6875 Z M 0.734375 3.578125 "/></g></g></g><g fill="#000000" fill-opacity="1"><g transform="translate(156.15292, 369.813984)"><g/></g></g><g fill="#000000" fill-opacity="1"><g transform="translate(162.050954, 369.813984)"><g><path d="M 5.90625 0.25 C 5.09375 0.25 4.335938 0.140625 3.640625 -0.078125 C 2.953125 -0.296875 2.367188 -0.59375 1.890625 -0.96875 C 1.410156 -1.34375 1.070312 -1.765625 0.875 -2.234375 L 2.015625 -3.40625 L 2.25 -3.40625 C 2.675781 -2.757812 3.1875 -2.273438 3.78125 -1.953125 C 4.375 -1.628906 5.082031 -1.46875 5.90625 -1.46875 C 6.863281 -1.46875 7.585938 -1.648438 8.078125 -2.015625 C 8.578125 -2.390625 8.828125 -2.910156 8.828125 -3.578125 C 8.828125 -4.085938 8.675781 -4.507812 8.375 -4.84375 C 8.082031 -5.175781 7.597656 -5.425781 6.921875 -5.59375 L 4.734375 -6.140625 C 3.566406 -6.421875 2.710938 -6.863281 2.171875 -7.46875 C 1.640625 -8.082031 1.375 -8.835938 1.375 -9.734375 C 1.375 -10.441406 1.550781 -11.054688 1.90625 -11.578125 C 2.269531 -12.097656 2.789062 -12.5 3.46875 -12.78125 C 4.144531 -13.0625 4.953125 -13.203125 5.890625 -13.203125 C 7.078125 -13.203125 8.015625 -13.035156 8.703125 -12.703125 C 9.390625 -12.367188 9.921875 -11.90625 10.296875 -11.3125 L 9.21875 -10.25 L 8.984375 -10.25 C 8.566406 -10.726562 8.113281 -11.070312 7.625 -11.28125 C 7.132812 -11.5 6.554688 -11.609375 5.890625 -11.609375 C 5.035156 -11.609375 4.378906 -11.453125 3.921875 -11.140625 C 3.472656 -10.835938 3.25 -10.398438 3.25 -9.828125 C 3.25 -9.296875 3.40625 -8.867188 3.71875 -8.546875 C 4.039062 -8.234375 4.601562 -7.976562 5.40625 -7.78125 L 7.5625 -7.265625 C 8.6875 -6.992188 9.5 -6.546875 10 -5.921875 C 10.5 -5.304688 10.75 -4.535156 10.75 -3.609375 C 10.75 -2.847656 10.566406 -2.175781 10.203125 -1.59375 C 9.847656 -1.019531 9.304688 -0.566406 8.578125 -0.234375 C 7.847656 0.0859375 6.957031 0.25 5.90625 0.25 Z M 5.90625 0.25 "/></g></g></g><g fill="#000000" fill-opacity="1"><g transform="translate(174.035007, 369.813984)"><g><path d="M 2.25 0 L 2.25 -18.171875 L 4.171875 -18.171875 L 4.171875 -11.109375 L 4.421875 -11.0625 C 5.335938 -12.488281 6.671875 -13.203125 8.421875 -13.203125 C 9.984375 -13.203125 11.113281 -12.804688 11.8125 -12.015625 C 12.507812 -11.222656 12.859375 -10 12.859375 -8.34375 L 12.859375 0 L 10.953125 0 L 10.953125 -8.296875 C 10.953125 -9.078125 10.847656 -9.703125 10.640625 -10.171875 C 10.441406 -10.648438 10.132812 -10.992188 9.71875 -11.203125 C 9.300781 -11.421875 8.753906 -11.53125 8.078125 -11.53125 C 6.898438 -11.53125 5.953125 -11.148438 5.234375 -10.390625 C 4.523438 -9.640625 4.171875 -8.394531 4.171875 -6.65625 L 4.171875 0 Z M 2.25 0 "/></g></g></g><g fill="#000000" fill-opacity="1"><g transform="translate(188.956327, 369.813984)"><g><path d="M 12.34375 -6.046875 L 3.4375 -6.015625 C 3.5 -4.453125 3.878906 -3.300781 4.578125 -2.5625 C 5.285156 -1.832031 6.242188 -1.46875 7.453125 -1.46875 C 8.378906 -1.46875 9.125 -1.628906 9.6875 -1.953125 C 10.257812 -2.285156 10.703125 -2.804688 11.015625 -3.515625 L 11.265625 -3.515625 L 12.515625 -2.765625 C 12.140625 -1.828125 11.535156 -1.085938 10.703125 -0.546875 C 9.878906 -0.015625 8.796875 0.25 7.453125 0.25 C 6.203125 0.25 5.125 0.00390625 4.21875 -0.484375 C 3.320312 -0.984375 2.628906 -1.734375 2.140625 -2.734375 C 1.660156 -3.734375 1.421875 -4.976562 1.421875 -6.46875 C 1.421875 -7.945312 1.675781 -9.191406 2.1875 -10.203125 C 2.695312 -11.210938 3.394531 -11.960938 4.28125 -12.453125 C 5.175781 -12.953125 6.195312 -13.203125 7.34375 -13.203125 C 9 -13.203125 10.289062 -12.734375 11.21875 -11.796875 C 12.15625 -10.859375 12.628906 -9.472656 12.640625 -7.640625 C 12.640625 -6.921875 12.625 -6.4375 12.59375 -6.1875 Z M 10.75 -7.640625 C 10.71875 -9.015625 10.410156 -10.015625 9.828125 -10.640625 C 9.253906 -11.265625 8.425781 -11.578125 7.34375 -11.578125 C 6.207031 -11.578125 5.316406 -11.257812 4.671875 -10.625 C 4.023438 -10 3.628906 -9.003906 3.484375 -7.640625 Z M 10.75 -7.640625 "/></g></g></g><g fill="#000000" fill-opacity="1"><g transform="translate(202.773235, 369.813984)"><g/></g></g><g fill="#000000" fill-opacity="1"><g transform="translate(208.671269, 369.813984)"><g><path d="M 7.4375 0.25 C 6.289062 0.25 5.265625 -0.0078125 4.359375 -0.53125 C 3.453125 -1.050781 2.734375 -1.816406 2.203125 -2.828125 C 1.679688 -3.847656 1.421875 -5.0625 1.421875 -6.46875 C 1.421875 -7.882812 1.679688 -9.097656 2.203125 -10.109375 C 2.734375 -11.128906 3.453125 -11.898438 4.359375 -12.421875 C 5.265625 -12.941406 6.289062 -13.203125 7.4375 -13.203125 C 8.8125 -13.203125 9.898438 -12.941406 10.703125 -12.421875 C 11.515625 -11.910156 12.101562 -11.222656 12.46875 -10.359375 L 11.15625 -9.421875 L 10.921875 -9.421875 C 10.566406 -10.128906 10.113281 -10.648438 9.5625 -10.984375 C 9.007812 -11.316406 8.300781 -11.484375 7.4375 -11.484375 C 6.632812 -11.484375 5.929688 -11.296875 5.328125 -10.921875 C 4.722656 -10.546875 4.253906 -9.984375 3.921875 -9.234375 C 3.597656 -8.484375 3.4375 -7.5625 3.4375 -6.46875 C 3.4375 -5.394531 3.601562 -4.484375 3.9375 -3.734375 C 4.269531 -2.984375 4.734375 -2.414062 5.328125 -2.03125 C 5.929688 -1.65625 6.632812 -1.46875 7.4375 -1.46875 C 8.332031 -1.46875 9.078125 -1.671875 9.671875 -2.078125 C 10.265625 -2.484375 10.726562 -3.125 11.0625 -4 L 11.3125 -4 L 12.578125 -3.265625 C 12.234375 -2.179688 11.628906 -1.320312 10.765625 -0.6875 C 9.898438 -0.0625 8.789062 0.25 7.4375 0.25 Z M 7.4375 0.25 "/></g></g></g><g fill="#000000" fill-opacity="1"><g transform="translate(222.029963, 369.813984)"><g><path d="M 5.34375 0.25 C 4.070312 0.25 3.078125 -0.0820312 2.359375 -0.75 C 1.640625 -1.414062 1.28125 -2.367188 1.28125 -3.609375 C 1.28125 -4.378906 1.4375 -5.023438 1.75 -5.546875 C 2.070312 -6.078125 2.566406 -6.507812 3.234375 -6.84375 C 3.898438 -7.175781 4.769531 -7.429688 5.84375 -7.609375 C 6.78125 -7.765625 7.492188 -7.941406 7.984375 -8.140625 C 8.472656 -8.335938 8.800781 -8.554688 8.96875 -8.796875 C 9.132812 -9.046875 9.21875 -9.351562 9.21875 -9.71875 C 9.21875 -10.300781 9.015625 -10.75 8.609375 -11.0625 C 8.210938 -11.375 7.566406 -11.53125 6.671875 -11.53125 C 5.835938 -11.53125 5.117188 -11.367188 4.515625 -11.046875 C 3.921875 -10.722656 3.367188 -10.238281 2.859375 -9.59375 L 2.625 -9.59375 L 1.6875 -10.921875 C 2.238281 -11.617188 2.9375 -12.171875 3.78125 -12.578125 C 4.625 -12.992188 5.585938 -13.203125 6.671875 -13.203125 C 8.203125 -13.203125 9.328125 -12.867188 10.046875 -12.203125 C 10.773438 -11.535156 11.140625 -10.609375 11.140625 -9.421875 L 11.140625 -2.546875 C 11.140625 -1.828125 11.445312 -1.46875 12.0625 -1.46875 C 12.257812 -1.46875 12.453125 -1.503906 12.640625 -1.578125 L 12.8125 -1.53125 L 13.03125 -0.203125 C 12.882812 -0.109375 12.695312 -0.0351562 12.46875 0.015625 C 12.238281 0.0664062 12.003906 0.09375 11.765625 0.09375 C 11.046875 0.09375 10.503906 -0.0625 10.140625 -0.375 C 9.773438 -0.6875 9.546875 -1.148438 9.453125 -1.765625 L 9.203125 -1.78125 C 8.828125 -1.101562 8.328125 -0.59375 7.703125 -0.25 C 7.078125 0.0820312 6.289062 0.25 5.34375 0.25 Z M 5.765625 -1.28125 C 6.484375 -1.28125 7.109375 -1.445312 7.640625 -1.78125 C 8.171875 -2.113281 8.578125 -2.582031 8.859375 -3.1875 C 9.140625 -3.789062 9.28125 -4.488281 9.28125 -5.28125 L 9.28125 -6.921875 L 9.0625 -6.96875 C 8.769531 -6.757812 8.414062 -6.585938 8 -6.453125 C 7.582031 -6.316406 7.003906 -6.195312 6.265625 -6.09375 C 5.515625 -5.988281 4.914062 -5.828125 4.46875 -5.609375 C 4.03125 -5.398438 3.71875 -5.132812 3.53125 -4.8125 C 3.34375 -4.488281 3.25 -4.085938 3.25 -3.609375 C 3.25 -2.847656 3.46875 -2.269531 3.90625 -1.875 C 4.351562 -1.476562 4.972656 -1.28125 5.765625 -1.28125 Z M 5.765625 -1.28125 "/></g></g></g><g fill="#000000" fill-opacity="1"><g transform="translate(235.435653, 369.813984)"><g><path d="M 2.25 0 L 2.25 -12.953125 L 4.078125 -12.953125 L 4.078125 -10.921875 L 4.328125 -10.875 C 4.753906 -11.625 5.300781 -12.195312 5.96875 -12.59375 C 6.644531 -13 7.460938 -13.203125 8.421875 -13.203125 C 9.984375 -13.203125 11.113281 -12.804688 11.8125 -12.015625 C 12.507812 -11.222656 12.859375 -10 12.859375 -8.34375 L 12.859375 0 L 10.953125 0 L 10.953125 -8.296875 C 10.953125 -9.078125 10.847656 -9.703125 10.640625 -10.171875 C 10.441406 -10.648438 10.132812 -10.992188 9.71875 -11.203125 C 9.300781 -11.421875 8.753906 -11.53125 8.078125 -11.53125 C 6.910156 -11.53125 5.96875 -11.144531 5.25 -10.375 C 4.53125 -9.601562 4.171875 -8.363281 4.171875 -6.65625 L 4.171875 0 Z M 2.25 0 "/></g></g></g><g fill="#000000" fill-opacity="1"><g transform="translate(250.356974, 369.813984)"><g/></g></g><g fill="#000000" fill-opacity="1"><g transform="translate(256.255008, 369.813984)"><g><path d="M 4.6875 -5.703125 L 2.71875 -5.703125 L 2.71875 -17.171875 L 4.6875 -17.171875 Z M 3.703125 0.125 C 3.253906 0.125 2.898438 0 2.640625 -0.25 C 2.378906 -0.507812 2.25 -0.84375 2.25 -1.25 C 2.25 -1.664062 2.378906 -2.003906 2.640625 -2.265625 C 2.898438 -2.523438 3.253906 -2.65625 3.703125 -2.65625 C 4.148438 -2.65625 4.503906 -2.53125 4.765625 -2.28125 C 5.023438 -2.03125 5.15625 -1.695312 5.15625 -1.28125 C 5.15625 -0.863281 5.023438 -0.523438 4.765625 -0.265625 C 4.503906 -0.00390625 4.148438 0.125 3.703125 0.125 Z M 3.703125 0.125 "/></g></g></g></svg>